<?xml version="1.0" standalone="no"?>
<!DOCTYPE svg PUBLIC "-//W3C//DTD SVG 20010904//EN"
 "http://www.w3.org/TR/2001/REC-SVG-20010904/DTD/svg10.dtd">
<svg version="1.0" xmlns="http://www.w3.org/2000/svg"
 width="178.000000pt" height="178.000000pt" viewBox="0 0 178.000000 178.000000"
 preserveAspectRatio="xMidYMid meet">
<metadata>
Created by potrace 1.11, written by Peter Selinger 2001-2013
</metadata>
<g transform="translate(0.000000,178.000000) scale(0.100000,-0.100000)"
fill="#000000" stroke="none">
<path d="M1270 1284 c-52 -47 -78 -97 -96 -188 -22 -106 -35 -138 -51 -124 -7
6 -13 28 -13 49 0 80 -63 219 -99 219 -6 0 -18 -26 -27 -57 -22 -76 -19 -74
-62 -59 -43 15 -190 13 -220 -3 -11 -6 -23 -11 -25 -11 -2 0 -12 27 -21 60
-19 66 -29 78 -52 59 -22 -18 -64 -104 -65 -131 l0 -23 -17 25 c-67 98 -139
145 -211 137 -99 -11 -162 -59 -182 -139 -13 -49 -16 -52 -72 -79 l-58 -27 55
-26 56 -27 1 -57 c2 -202 105 -358 264 -401 128 -34 239 -30 320 12 22 12 45
20 50 18 50 -14 210 9 253 37 8 6 26 -4 51 -28 23 -22 56 -41 81 -48 62 -15
177 -8 231 16 50 22 108 74 110 100 1 9 3 31 5 48 1 17 9 45 18 62 16 30 19
32 101 46 85 14 176 123 177 210 1 67 -10 75 -105 75 -122 -1 -117 -2 -117 26
0 33 -53 91 -90 98 -34 7 -37 21 -16 79 22 61 -4 70 -74 24 l-38 -25 2 41 c0
24 -4 43 -11 45 -6 2 -30 -13 -53 -33z"/>
</g>
</svg>
